<svg id="SvgjsSvg1001" width="288" height="288" xmlns="http://www.w3.org/2000/svg" version="1.1" xmlns:xlink="http://www.w3.org/1999/xlink" xmlns:svgjs="http://svgjs.com/svgjs"><defs id="SvgjsDefs1002"></defs><g id="SvgjsG1008" transform="matrix(0.9167,0,0,0.9167,11.737310770416258,12.132611444091793)"><svg xmlns="http://www.w3.org/2000/svg" width="288" height="288" viewBox="0 0 28 32"><path fill="#fca311" fill-rule="evenodd" d="M93.035 519.134l-13.098-7.558a.554.554 0 0 0-.562 0l-13.094 7.558a.564.564 0 0 0-.281.487v15.124a.56.56 0 0 0 .281.487l13.094 7.562a.576.576 0 0 0 .562 0l13.098-7.562a.566.566 0 0 0 .277-.487V519.62a.564.564 0 0 0-.277-.487zm-21.562-1.697l11.971 6.911-3.787 2.185-11.967-6.91 3.783-2.187zm3.265-1.888l11.971 6.913-2.135 1.236-11.971-6.913 2.135-1.236zm10.399 9.124l2.135-1.235v4.134l-1.066-.006c-.16 0-.32.07-.426.192l-.643.748v-3.833zm-5.481-11.957l11.971 6.905-.564.325-3.227 1.865-11.967-6.913 3.787-2.183zm-12.529 7.88l11.965 6.913v13.822l-11.965-6.913v-13.822zm25.062 13.822l-11.971 6.913v-13.822l3.791-2.187v4.692a.559.559 0 0 0 .564.562c.016 0 .023-.019.045-.024a.54.54 0 0 0 .379-.17l1.463-1.692 1.375.005c.15 0 .293-.062.398-.168a.541.541 0 0 0 .164-.396v-5.343l3.791-2.192v13.822h.001z" transform="translate(-66 -511)" class="color000 svgShape"></path></svg></g></svg>