<svg id="SvgjsSvg1062" width="288" height="288" xmlns="http://www.w3.org/2000/svg" version="1.1" xmlns:xlink="http://www.w3.org/1999/xlink" xmlns:svgjs="http://svgjs.com/svgjs"><defs id="SvgjsDefs1063"></defs><g id="SvgjsG1064" transform="matrix(0.9167,0,0,0.9167,11.995200000000011,11.995200000000011)"><svg xmlns="http://www.w3.org/2000/svg" viewBox="0 0 48 48" width="288" height="288"><g data-name="Stack of Boxes" fill="#ffffff" class="color000 svgShape"><rect width="46" height="4" x="1" y="40" fill="#ffffff" class="color7c7d7d svgShape"></rect><path fill="#f3f3f3" d="M47,40v2H5a2,2,0,0,1-2-2Z" class="color919191 svgShape"></path><rect width="12" height="12" x="6" y="28" fill="#ffffff" class="colora87e6b svgShape"></rect><path fill="#f5f5f5" d="M18,28V38H14a6,6,0,0,1-6-6V28Z" class="colorbe927c svgShape"></path><rect width="12" height="12" x="12" y="16" fill="#ffffff" class="colora87e6b svgShape"></rect><path fill="#f5f5f5" d="M24,16V26H20a6,6,0,0,1-6-6V16Z" class="colorbe927c svgShape"></path><rect width="12" height="12" x="24" y="16" fill="#ffffff" class="colora87e6b svgShape"></rect><path fill="#f5f5f5" d="M36,16V26H32a6,6,0,0,1-6-6V16Z" class="colorbe927c svgShape"></path><rect width="12" height="12" x="18" y="4" fill="#ffffff" class="colora87e6b svgShape"></rect><path fill="#f5f5f5" d="M30,4V14H26a6,6,0,0,1-6-6V4Z" class="colorbe927c svgShape"></path><rect width="12" height="12" x="18" y="28" fill="#ffffff" class="colora87e6b svgShape"></rect><path fill="#f5f5f5" d="M30,28V38H26a6,6,0,0,1-6-6V28Z" class="colorbe927c svgShape"></path><rect width="12" height="12" x="30" y="28" fill="#ffffff" class="colora87e6b svgShape"></rect><path fill="#f5f5f5" d="M42,28V38H38a6,6,0,0,1-6-6V28Z" class="colorbe927c svgShape"></path><rect width="4" height="4" x="10" y="28" fill="#ffffff" class="colorf6ccaf svgShape"></rect><rect width="4" height="4" x="22" y="28" fill="#ffffff" class="colorf6ccaf svgShape"></rect><rect width="4" height="4" x="34" y="28" fill="#ffffff" class="colorf6ccaf svgShape"></rect><rect width="4" height="4" x="16" y="16" fill="#ffffff" class="colorf6ccaf svgShape"></rect><path fill="#f5f5f5" d="M20,16v3a3,3,0,0,1-3-3Z" class="colorffdec7 svgShape"></path><rect width="4" height="4" x="28" y="16" fill="#ffffff" class="colorf6ccaf svgShape"></rect><rect width="4" height="4" x="22" y="4" fill="#ffffff" class="colorf6ccaf svgShape"></rect><path fill="#f5f5f5" d="M26 4V7a3 3 0 0 1-3-3zM32 16v3a3 3 0 0 1-3-3zM14 28v3a3 3 0 0 1-3-3zM26 28v3a3 3 0 0 1-3-3zM38 28v3a3 3 0 0 1-3-3z" class="colorffdec7 svgShape"></path><path fill="#ffffff" d="M25 13H23a1 1 0 0 1 0-2h2A1 1 0 0 1 25 13zM19 25H17a1 1 0 0 1 0-2h2A1 1 0 0 1 19 25zM31 25H29a1 1 0 0 1 0-2h2A1 1 0 0 1 31 25zM13 37H11a1 1 0 0 1 0-2h2A1 1 0 0 1 13 37zM25 37H23a1 1 0 0 1 0-2h2A1 1 0 0 1 25 37zM37 37H35a1 1 0 0 1 0-2h2A1 1 0 0 1 37 37z" class="colorc6c3d8 svgShape"></path></g></svg></g></svg>