<svg id="SvgjsSvg1063" width="288" height="288" xmlns="http://www.w3.org/2000/svg" version="1.1" xmlns:xlink="http://www.w3.org/1999/xlink" xmlns:svgjs="http://svgjs.com/svgjs"><defs id="SvgjsDefs1064"></defs><g id="SvgjsG1065" transform="matrix(0.9167,0,0,0.9167,11.995200000000011,11.995200000000011)"><svg xmlns="http://www.w3.org/2000/svg" viewBox="0 0 16 16" width="288" height="288"><linearGradient id="a" x1="1.464" x2="14.536" y1="14.536" y2="1.464" gradientUnits="userSpaceOnUse"><stop offset="0" stop-color="#000000" class="stopColorFFC107 svgShape"></stop><stop offset=".507" stop-color="#000000" class="stopColorF44336 svgShape"></stop><stop offset=".99" stop-color="#000000" class="stopColor9C27B0 svgShape"></stop></linearGradient><path fill="url(#a)" d="M11 0H5a5 5 0 0 0-5 5v6a5 5 0 0 0 5 5h6a5 5 0 0 0 5-5V5a5 5 0 0 0-5-5zm3.5 11c0 1.93-1.57 3.5-3.5 3.5H5c-1.93 0-3.5-1.57-3.5-3.5V5c0-1.93 1.57-3.5 3.5-3.5h6c1.93 0 3.5 1.57 3.5 3.5v6z"></path><linearGradient id="b" x1="5.172" x2="10.828" y1="10.828" y2="5.172" gradientUnits="userSpaceOnUse"><stop offset="0" stop-color="#000000" class="stopColorFFC107 svgShape"></stop><stop offset=".507" stop-color="#000000" class="stopColorF44336 svgShape"></stop><stop offset=".99" stop-color="#000000" class="stopColor9C27B0 svgShape"></stop></linearGradient><path fill="url(#b)" d="M8 4a4 4 0 1 0 0 8 4 4 0 0 0 0-8zm0 6.5A2.503 2.503 0 0 1 5.5 8c0-1.379 1.122-2.5 2.5-2.5s2.5 1.121 2.5 2.5c0 1.378-1.122 2.5-2.5 2.5z"></path><linearGradient id="c" x1="11.923" x2="12.677" y1="4.077" y2="3.323" gradientUnits="userSpaceOnUse"><stop offset="0" stop-color="#000000" class="stopColorFFC107 svgShape"></stop><stop offset=".507" stop-color="#000000" class="stopColorF44336 svgShape"></stop><stop offset=".99" stop-color="#000000" class="stopColor9C27B0 svgShape"></stop></linearGradient><circle cx="12.3" cy="3.7" r=".533" fill="url(#c)"></circle></svg></g></svg>