<svg id="SvgjsSvg1058" width="288" height="288" xmlns="http://www.w3.org/2000/svg" version="1.1" xmlns:xlink="http://www.w3.org/1999/xlink" xmlns:svgjs="http://svgjs.com/svgjs"><defs id="SvgjsDefs1059"></defs><g id="SvgjsG1060" transform="matrix(0.9167,0,0,0.9167,11.99520762634279,11.995196186828622)"><svg xmlns="http://www.w3.org/2000/svg" width="288" height="288" viewBox="0 0 48 40"><path fill="#000000" fill-rule="evenodd" d="M348 168.735a19.235 19.235 0 0 1-5.655 1.59 10.076 10.076 0 0 0 4.33-5.585 19.395 19.395 0 0 1-6.257 2.447c-1.791-1.962-4.352-3.187-7.187-3.187-5.435 0-9.844 4.521-9.844 10.098 0 .791.085 1.56.254 2.3-8.185-.423-15.44-4.438-20.3-10.555a10.281 10.281 0 0 0-1.332 5.082c0 3.502 1.738 6.593 4.38 8.405a9.668 9.668 0 0 1-4.462-1.26v.124c0 4.894 3.395 8.977 7.903 9.901a9.39 9.39 0 0 1-2.595.356c-.634 0-1.254-.061-1.854-.18 1.254 4.01 4.888 6.932 9.199 7.01-3.37 2.71-7.618 4.325-12.23 4.325-.795 0-1.58-.047-2.35-.139 4.359 2.86 9.537 4.533 15.096 4.533 18.115 0 28.019-15.385 28.019-28.73 0-.439-.009-.878-.026-1.308a20.211 20.211 0 0 0 4.911-5.227" transform="translate(-300 -164)" class="color00AAEC svgShape"></path></svg></g></svg>